<?xml version="1.0" standalone="no"?>
<!DOCTYPE svg PUBLIC "-//W3C//DTD SVG 20010904//EN"
 "http://www.w3.org/TR/2001/REC-SVG-20010904/DTD/svg10.dtd">
<svg version="1.0" xmlns="http://www.w3.org/2000/svg"
 width="225.000000pt" height="225.000000pt" viewBox="0 0 225.000000 225.000000"
 preserveAspectRatio="xMidYMid meet">
<metadata>
Created by potrace 1.15, written by Peter Selinger 2001-2017
</metadata>
<g transform="translate(0.000000,225.000000) scale(0.100000,-0.100000)"
fill="#000000" stroke="rgb(255, 0, 0)" stroke-width="2px">
<path d="M1265 1799 c-11 -4 -46 -8 -78 -8 -72 -1 -92 -11 -107 -55 -9 -29
-17 -35 -58 -46 -63 -15 -73 -25 -61 -56 5 -14 9 -35 9 -47 0 -20 -2 -19 -32
9 -54 50 -98 64 -172 57 l-64 -6 23 -21 c13 -11 30 -41 38 -66 9 -27 24 -50
37 -57 l22 -11 -21 -11 c-11 -7 -21 -18 -21 -26 0 -7 -9 -16 -20 -20 -11 -3
-28 -17 -39 -31 -12 -15 -29 -24 -46 -24 -38 0 -80 -33 -132 -104 -38 -52 -42
-62 -29 -71 25 -19 37 -64 40 -152 2 -57 9 -91 20 -108 17 -26 17 -26 -11 -23
-23 3 -28 8 -29 36 -2 36 -19 62 -41 62 -7 0 -26 9 -42 20 -23 18 -32 19 -57
10 -17 -7 -49 -9 -77 -5 -30 3 -46 2 -43 -4 3 -5 -3 -7 -14 -4 -24 6 -26 -9
-5 -27 9 -7 14 -19 11 -27 -3 -7 7 -21 22 -30 54 -35 61 -53 20 -53 -10 0 -18
-4 -18 -10 0 -5 -18 -22 -40 -36 -27 -18 -39 -32 -35 -42 3 -8 0 -21 -7 -29
-9 -11 -9 -16 0 -22 9 -5 6 -17 -12 -44 -29 -43 -18 -50 14 -10 14 18 20 37
17 52 -3 14 0 35 5 47 17 36 82 74 125 74 l38 -1 -32 -14 c-19 -8 -51 -39 -77
-77 -75 -103 -92 -118 -137 -118 -21 0 -39 -4 -39 -10 0 -17 44 -21 114 -10
38 6 71 9 74 6 8 -9 56 21 72 45 8 13 26 33 39 46 19 18 24 33 23 64 -2 54
-16 77 -55 87 -28 8 -24 9 26 8 46 0 55 -3 43 -12 -23 -16 -20 -22 11 -16 26
5 26 5 10 -19 -26 -36 -21 -96 13 -159 34 -64 40 -126 13 -133 -17 -4 -17 -4
-1 -11 12 -6 30 3 60 27 24 19 52 37 63 39 19 3 28 21 40 80 3 16 11 27 18 25
16 -3 11 56 -8 93 -8 16 -32 41 -52 55 -33 22 -35 25 -15 25 34 0 86 -24 153
-71 56 -40 58 -43 43 -61 -21 -22 -40 -23 -48 -3 -3 8 -12 15 -20 15 -11 0
-13 -8 -9 -36 5 -31 1 -40 -34 -77 -56 -59 -130 -152 -149 -188 -15 -29 -15
-32 5 -46 14 -10 21 -25 21 -49 0 -19 4 -34 9 -34 10 0 15 13 26 67 13 66 139
227 238 306 l41 32 -23 -31 c-34 -47 -39 -112 -11 -168 14 -29 28 -46 40 -46
10 0 23 -7 30 -15 7 -8 18 -15 24 -15 20 0 65 -77 59 -100 -10 -39 16 -20 47
35 17 30 37 55 45 55 16 0 32 41 40 107 6 44 3 59 -14 87 -12 18 -19 40 -16
48 8 19 -33 88 -51 88 -20 0 -17 11 15 48 l28 33 7 -31 c6 -31 46 -76 94 -108
20 -13 25 -13 32 -2 6 10 15 7 41 -14 29 -24 34 -26 44 -13 14 20 64 10 127
-24 46 -26 66 -69 32 -69 -14 0 -15 -3 -6 -12 9 -9 17 -6 36 11 24 23 25 41 2
70 -6 8 -16 40 -23 73 -9 42 -27 80 -66 137 -51 75 -53 80 -33 85 32 9 36 7
36 -12 0 -22 59 -117 67 -108 3 3 18 -3 33 -14 16 -11 35 -20 44 -20 28 0 82
-26 105 -51 23 -25 28 -68 9 -87 -9 -9 -7 -12 9 -12 28 0 53 36 53 77 0 17
-16 62 -35 100 -44 86 -46 118 -2 39 41 -74 81 -114 123 -122 18 -3 74 -1 125
4 82 9 96 13 116 37 23 27 31 65 13 65 -5 0 -10 -7 -10 -15 0 -27 -47 -65 -78
-65 -25 0 -29 3 -25 24 5 26 -26 66 -52 66 -20 0 -19 -5 7 -40 12 -16 19 -33
15 -36 -8 -8 -63 33 -143 107 -74 69 -136 106 -192 115 l-43 7 41 24 42 25 32
-31 c39 -38 56 -39 113 -5 48 28 78 25 88 -8 5 -12 11 -16 16 -11 14 14 -5 57
-38 82 -25 20 -35 22 -98 16 l-70 -6 60 40 c35 24 72 41 88 41 32 0 70 25 128
85 32 33 45 39 75 38 31 -1 35 1 31 18 -6 22 -3 23 24 9 16 -9 18 -18 14 -53
l-5 -42 15 39 c21 56 5 88 -53 101 -37 8 -42 12 -38 31 6 24 -19 131 -36 151
-12 15 -58 18 -58 3 0 -5 -10 -14 -21 -21 -17 -9 -23 -8 -30 2 -6 10 -10 9
-15 -6 -4 -11 -15 -30 -24 -42 l-17 -22 -22 30 c-12 16 -28 29 -36 29 -16 0
-20 -12 -9 -23 7 -7 16 -60 14 -87 0 -8 -2 -63 -3 -123 -3 -97 -5 -109 -25
-123 -20 -14 -22 -14 -22 0 0 27 -17 17 -23 -13 -5 -22 -23 -40 -74 -74 -37
-24 -86 -50 -108 -58 l-40 -13 30 -6 c56 -12 115 -51 115 -77 0 -7 12 -32 26
-55 l26 -41 -53 44 c-30 24 -69 57 -88 74 -31 27 -32 28 -18 5 9 -14 48 -54
88 -89 64 -58 109 -113 109 -134 0 -4 -16 10 -35 32 -20 21 -51 46 -69 55 -19
9 -44 29 -56 44 -21 26 -21 26 -16 3 l5 -23 -25 23 c-13 12 -24 32 -25 43 0
20 -1 20 -8 1 -8 -19 -8 -19 -20 3 -7 13 -13 40 -14 62 -2 48 31 80 75 73 16
-2 28 0 28 6 0 6 9 11 19 11 24 0 121 92 121 115 0 9 7 38 16 65 18 56 15 86
-9 84 -20 -2 -24 47 -6 93 17 45 14 153 -6 201 -21 52 -67 92 -105 92 -31 0
-55 -23 -46 -45 7 -20 36 -19 36 0 0 25 29 29 51 9 51 -46 75 -141 60 -229 -7
-40 -10 -46 -16 -28 -8 26 -26 35 -46 22 -11 -7 -11 -9 4 -9 9 0 17 -6 17 -14
0 -16 -68 -76 -85 -76 -19 0 -83 -73 -100 -112 -19 -47 -19 -72 1 -125 14 -35
14 -46 4 -58 -21 -26 -28 -17 -32 48 -4 63 -25 120 -43 120 -5 0 -25 12 -44
28 -18 15 -40 25 -47 22 -8 -3 -14 0 -14 6 0 14 30 20 110 23 l64 3 30 58 c26
50 28 62 19 87 -9 23 -8 32 3 41 8 6 14 21 14 33 -1 30 -33 98 -58 120 -12 10
-25 34 -28 53 -5 25 -14 38 -33 45 -14 6 -35 14 -46 18 -35 14 -60 17 -80 9z
m-185 -165 c0 -52 -1 -55 -17 -43 -15 13 -15 12 -1 -11 9 -14 20 -47 24 -75
l7 -50 -24 22 c-13 12 -36 26 -51 32 -25 10 -28 15 -28 60 0 27 -2 56 -6 64
-3 9 6 18 28 26 18 7 40 17 48 21 8 5 16 9 18 9 1 1 2 -24 2 -55z m245 -101
c0 -15 -76 -29 -132 -25 -63 4 -63 4 -63 36 1 17 9 46 19 64 l17 34 -4 -63
c-6 -81 13 -71 21 12 4 33 9 64 12 69 5 8 130 -115 130 -127z m123 -138 l-23
-37 -90 -5 c-126 -7 -126 -7 -151 24 -30 37 -30 49 1 29 17 -11 23 -12 19 -3
-5 15 3 17 124 23 50 3 92 10 92 15 0 5 -5 9 -10 9 -19 0 14 39 35 42 31 5 32
-51 3 -97z m201 -22 c4 -29 12 -47 19 -45 16 3 15 -20 -2 -60 -8 -18 -17 -45
-20 -60 -4 -18 -20 -35 -49 -53 -62 -35 -71 -31 -38 18 29 42 68 144 59 152
-3 3 -11 -14 -18 -37 l-13 -43 -12 45 -12 45 1 -60 c0 -33 -5 -69 -11 -80 -11
-17 -11 -15 -7 15 3 19 1 46 -5 60 l-11 25 3 -27 c2 -15 1 -44 -3 -65 -7 -36
-8 -36 -10 -8 -2 29 -2 29 -14 -9 -16 -51 -31 -56 -45 -14 -23 72 19 144 122
210 26 16 47 35 47 41 0 26 12 -6 19 -50z m-484 -11 c41 -60 34 -92 -32 -166
-32 -35 -61 -65 -64 -65 -3 -1 5 36 18 82 17 57 23 101 21 144 -3 55 -1 60 14
52 10 -5 29 -26 43 -47z m-514 -104 c-23 -46 -42 -98 -43 -116 -4 -52 -19 -39
-53 44 -20 49 -16 60 48 124 90 88 107 70 48 -52z m604 18 c27 -12 36 -23 45
-55 11 -42 8 -72 -15 -171 -7 -30 -16 -67 -19 -82 -6 -27 -8 -28 -74 -28 -61
1 -65 2 -48 15 11 8 31 15 45 16 14 0 20 3 14 6 -18 7 -16 23 3 23 13 0 14 3
4 15 -10 12 -10 16 1 20 17 6 16 134 -1 165 -10 18 -4 90 6 90 3 0 20 -6 39
-14z m-530 -54 c41 -64 40 -63 8 -52 l-28 10 25 -18 c14 -9 51 -41 82 -69 32
-29 66 -53 75 -53 11 0 13 -3 8 -9 -6 -6 -38 -11 -71 -12 -54 -2 -68 2 -115
31 -60 37 -78 56 -79 84 0 21 50 136 59 136 3 0 19 -22 36 -48z m335 -9 c0 -5
-5 -24 -10 -44 -13 -48 -51 -83 -80 -74 -17 5 -20 4 -15 -5 4 -7 -6 -5 -24 6
-17 10 -31 23 -31 28 0 5 -3 6 -7 3 -3 -4 2 -17 13 -28 l19 -22 -25 13 c-14 7
-38 24 -54 39 l-28 26 16 -32 c9 -18 24 -37 33 -42 10 -6 13 -11 7 -11 -12 0
-53 43 -76 80 l-15 25 91 0 c73 1 99 5 131 22 45 23 55 26 55 16z m140 -81 c0
-29 -6 -67 -14 -85 -20 -49 -70 -87 -114 -87 -41 0 -152 29 -152 40 0 4 24 18
53 30 28 12 65 32 81 43 23 16 32 18 47 9 11 -7 19 -8 19 -3 0 6 -8 15 -17 20
-15 9 -16 12 -3 20 8 5 18 7 24 4 5 -4 6 -1 1 6 -4 8 5 26 26 47 39 41 49 33
49 -44z m-560 -73 c32 -20 33 -23 15 -30 -16 -6 -12 -8 16 -8 43 -1 126 -35
110 -45 -6 -4 -16 -17 -22 -29 -11 -19 -8 -18 20 6 18 15 42 27 53 27 19 0 19
-2 -6 -21 -14 -11 -26 -25 -26 -31 0 -5 14 2 31 16 17 14 38 26 47 26 11 -1 7
-6 -11 -16 -16 -9 -26 -18 -23 -22 4 -3 12 0 18 6 14 14 42 16 33 2 -3 -6 1
-7 10 -3 14 5 14 8 3 15 -10 8 -9 9 4 4 10 -3 51 -8 92 -12 l75 -7 -14 -26
c-23 -44 -99 -119 -128 -126 -41 -11 -67 -1 -170 67 -52 35 -108 70 -125 80
-46 25 -64 58 -56 107 4 22 9 41 13 41 3 0 22 -10 41 -21z m710 -104 c11 -13
8 -15 -16 -16 l-29 -1 35 -13 c24 -9 29 -14 15 -15 -15 -1 -12 -4 13 -15 17
-8 32 -20 32 -26 0 -7 8 -22 19 -33 10 -12 22 -32 26 -46 5 -20 2 -18 -19 12
-15 21 -46 49 -70 63 -57 33 -69 32 -23 -2 32 -24 111 -122 104 -129 -5 -5
-95 22 -110 34 -8 7 -20 26 -27 43 -7 16 -15 28 -17 25 -2 -2 3 -20 11 -41 14
-34 14 -36 -2 -33 -11 2 -22 20 -29 48 l-13 45 3 -42 c1 -24 -1 -43 -5 -43
-14 0 -28 39 -28 76 0 43 -9 40 -20 -8 l-8 -33 -1 37 c-1 41 13 54 65 61 24 3
30 9 32 35 3 26 8 32 26 32 13 0 29 -7 36 -15z m-397 -246 c20 -9 27 -23 35
-68 28 -146 22 -176 -25 -129 -15 16 -27 42 -32 74 -7 48 -7 49 -15 17 -4 -18
-5 -43 -1 -55 4 -18 2 -16 -11 6 -12 21 -15 42 -10 75 8 59 -11 42 -22 -20
l-8 -44 -8 42 c-16 91 25 135 97 102z"/>
</g>
</svg>
